<svg xmlns="http://www.w3.org/2000/svg" viewBox="0 0 512 512" width="512" height="512">
  <rect width="512" height="512" rx="128" fill="#B84E20"/>
  <path d="M256 96c-88.4 0-160 71.6-160 160s71.6 160 160 160 160-71.6 160-160-71.6-160-160-160zm0 280c-66.3 0-120-53.7-120-120s53.7-120 120-120 120 53.7 120 120-53.7 120-120 120z" fill="#FDF5E8"/>
  <path d="M320 256h-56v-56c0-4.4-3.6-8-8-8s-8 3.6-8 8v56h-56c-4.4 0-8 3.6-8 8s3.6 8 8 8h56v56c0 4.4 3.6 8 8 8s8-3.6 8-8v-56h56c4.4 0 8-3.6 8-8s-3.6-8-8-8z" fill="#FDF5E8"/>
</svg>
